<?xml version="1.0" encoding="UTF-8"?>
<!DOCTYPE svg PUBLIC "-//W3C//DTD SVG 1.1//EN" "http://www.w3.org/Graphics/SVG/1.1/DTD/svg11.dtd">
<svg xmlns="http://www.w3.org/2000/svg" version="1.1" width="1024px" height="1024px" style="shape-rendering:geometricPrecision; text-rendering:geometricPrecision; image-rendering:optimizeQuality; fill-rule:evenodd; clip-rule:evenodd" xmlns:xlink="http://www.w3.org/1999/xlink">
<g><path style="opacity:0.986" fill="#000000" d="M 511.5,-0.5 C 512.833,-0.5 514.167,-0.5 515.5,-0.5C 553.441,22.4779 591.775,44.9779 630.5,67C 645.205,75.921 654.372,88.7543 658,105.5C 658.333,124.167 658.667,142.833 659,161.5C 672.195,147.971 685.695,134.804 699.5,122C 713.844,113.641 729.177,111.308 745.5,115C 789.216,126.345 832.882,137.845 876.5,149.5C 888.642,194.069 900.476,238.735 912,283.5C 915.034,299.24 912.368,313.907 904,327.5C 891.53,340.971 878.696,354.138 865.5,367C 884.863,367.107 904.197,367.774 923.5,369C 940.091,373.586 952.591,383.42 961,398.5C 981.355,434.558 1002.19,470.225 1023.5,505.5C 1023.5,510.833 1023.5,516.167 1023.5,521.5C 1002.11,557.272 980.941,593.272 960,629.5C 951.041,644.787 937.875,654.287 920.5,658C 901.833,658.333 883.167,658.667 864.5,659C 877.333,671.833 890.167,684.667 903,697.5C 912.919,712.925 915.586,729.592 911,747.5C 899.823,790.543 888.489,833.543 877,876.5C 836.55,887.405 796.05,898.238 755.5,909C 741.642,913.505 727.642,914.172 713.5,911C 707.716,909.211 702.383,906.545 697.5,903C 684.667,890.167 671.833,877.333 659,864.5C 658.667,883.167 658.333,901.833 658,920.5C 654.287,937.875 644.787,951.041 629.5,960C 593.272,980.941 557.272,1002.11 521.5,1023.5C 516.167,1023.5 510.833,1023.5 505.5,1023.5C 469.061,1001.77 432.394,980.274 395.5,959C 381.929,950.687 373.096,938.853 369,923.5C 367.774,904.197 367.107,884.863 367,865.5C 354.138,878.696 340.971,891.53 327.5,904C 313.9,912.328 299.234,914.995 283.5,912C 238.894,900.182 194.227,888.682 149.5,877.5C 138.109,833.49 126.609,789.49 115,745.5C 111.308,729.177 113.641,713.844 122,699.5C 134.804,685.695 147.971,672.195 161.5,659C 142.833,658.667 124.167,658.333 105.5,658C 90.1379,654.645 77.9713,646.479 69,633.5C 46.0591,593.939 22.8924,554.606 -0.5,515.5C -0.5,514.167 -0.5,512.833 -0.5,511.5C 22.3068,472.563 45.1402,433.563 68,394.5C 76.3725,381.798 87.8725,373.298 102.5,369C 122.14,367.787 141.806,367.12 161.5,367C 149,354.5 136.5,342 124,329.5C 113.949,314.907 110.949,298.907 115,281.5C 126.345,237.784 137.845,194.118 149.5,150.5C 193.263,138.058 237.263,126.225 281.5,115C 298.346,111.104 314.012,113.771 328.5,123C 341.333,135.833 354.167,148.667 367,161.5C 367.105,141.804 367.772,122.137 369,102.5C 373.298,87.8725 381.798,76.3725 394.5,68C 433.563,45.1402 472.563,22.3068 511.5,-0.5 Z"/></g>
<g><path style="opacity:1" fill="#d49e0e" d="M 511.5,50.5 C 513.308,50.4914 514.975,50.9914 516.5,52C 546.236,70.7302 576.236,89.0635 606.5,107C 612.943,112.727 617.776,119.56 621,127.5C 621.167,168.171 621.667,208.837 622.5,249.5C 650.32,222.18 677.986,194.68 705.5,167C 715.63,160.241 726.63,158.241 738.5,161C 772.683,169.588 806.85,178.088 841,186.5C 848.862,220.949 857.196,255.282 866,289.5C 867.465,300.508 865.465,310.841 860,320.5C 832.32,348.014 804.82,375.68 777.5,403.5C 817.162,404.333 856.829,404.833 896.5,405C 908.242,408.076 917.076,414.909 923,425.5C 940.457,454.917 958.29,484.084 976.5,513C 957.623,543.25 939.123,573.75 921,604.5C 915.211,612.283 907.711,617.783 898.5,621C 858.168,621.5 817.835,621.667 777.5,621.5C 777.351,622.552 777.517,623.552 778,624.5C 805.667,652.167 833.333,679.833 861,707.5C 866.089,716.56 867.755,726.227 866,736.5C 857.341,770.802 848.841,805.135 840.5,839.5C 806.271,848.474 771.938,857.308 737.5,866C 726.35,867.96 716.016,865.96 706.5,860C 679.167,832.667 651.833,805.333 624.5,778C 623.552,777.517 622.552,777.351 621.5,777.5C 621.667,817.835 621.5,858.168 621,898.5C 616.989,909.707 609.822,918.207 599.5,924C 570.63,940.931 541.963,958.097 513.5,975.5C 482.039,956.934 450.705,938.1 419.5,919C 412.24,913.072 407.407,905.572 405,896.5C 404.833,856.829 404.333,817.162 403.5,777.5C 375.68,804.82 348.014,832.32 320.5,860C 310.904,865.719 300.571,867.719 289.5,866C 255.03,857.257 220.53,848.757 186,840.5C 176.847,803.223 168.014,765.89 159.5,728.5C 159.904,720.123 162.404,712.456 167,705.5C 194.68,677.986 222.18,650.32 249.5,622.5C 208.837,621.667 168.171,621.167 127.5,621C 119.56,617.776 112.727,612.943 107,606.5C 88.5371,575.068 69.7038,543.901 50.5,513C 69.868,481.1 89.368,449.266 109,417.5C 114.815,411.675 121.648,407.509 129.5,405C 169.504,404.833 209.504,404.333 249.5,403.5C 221.847,375.347 194.014,347.347 166,319.5C 161.309,311.073 159.309,302.073 160,292.5C 168.976,256.929 177.476,221.262 185.5,185.5C 221.197,177.193 256.863,168.693 292.5,160C 302.073,159.309 311.073,161.309 319.5,166C 347.347,194.014 375.347,221.847 403.5,249.5C 404.333,209.504 404.833,169.504 405,129.5C 407.782,119.724 413.282,111.891 421.5,106C 452.066,88.2269 482.066,69.7269 511.5,50.5 Z"/></g>
<g><path style="opacity:1" fill="#010100" d="M 727.5,423.5 C 726.957,423.56 726.624,423.893 726.5,424.5C 755.492,425.5 784.492,425.833 813.5,425.5C 823.556,426.278 831.723,430.611 838,438.5C 853.167,463.5 868.333,488.5 883.5,513.5C 868.667,537.833 853.833,562.167 839,586.5C 832.949,594.273 825.116,599.106 815.5,601C 785.833,601.333 756.167,601.667 726.5,602C 747.333,622.833 768.167,643.667 789,664.5C 794.694,672.629 796.694,681.629 795,691.5C 788.179,719.447 781.679,747.447 775.5,775.5C 747.442,781.681 719.442,788.181 691.5,795C 681.582,796.936 672.582,794.936 664.5,789C 643.667,768.167 622.833,747.333 602,726.5C 601.667,756.167 601.333,785.833 601,815.5C 599.106,825.116 594.273,832.949 586.5,839C 562.167,853.833 537.833,868.667 513.5,883.5C 488,868.251 462.666,852.751 437.5,837C 431.13,831.136 427.13,823.969 425.5,815.5C 425.833,785.826 425.5,756.159 424.5,726.5C 423.893,726.624 423.56,726.957 423.5,727.5C 404.035,747.465 384.368,767.299 364.5,787C 355.103,794.574 344.437,797.24 332.5,795C 305.541,788.344 278.541,781.844 251.5,775.5C 244.828,747.144 237.994,718.811 231,690.5C 229.572,679.45 232.572,669.783 240,661.5C 259.701,641.632 279.535,621.965 299.5,602.5C 300.043,602.44 300.376,602.107 300.5,601.5C 269.841,600.5 239.174,600.167 208.5,600.5C 200.679,598.672 194.179,594.672 189,588.5C 173.316,563.795 158.149,538.795 143.5,513.5C 156.733,490.706 170.233,468.039 184,445.5C 189.423,436.075 197.256,429.575 207.5,426C 238.5,425.667 269.5,425.333 300.5,425C 279.667,404.167 258.833,383.333 238,362.5C 232.18,354.041 229.847,344.708 231,334.5C 237.835,307.161 244.668,279.828 251.5,252.5C 258.298,249.881 265.298,247.714 272.5,246C 293.216,241.206 313.883,236.206 334.5,231C 344.154,229.996 353.154,231.996 361.5,237C 382.035,257.702 402.701,278.202 423.5,298.5C 423.783,299.289 424.283,299.956 425,300.5C 425.5,270.502 425.667,240.502 425.5,210.5C 427.329,200.683 432.329,192.85 440.5,187C 464.541,171.981 488.874,157.481 513.5,143.5C 538.795,158.149 563.795,173.316 588.5,189C 594.55,194.26 598.716,200.76 601,208.5C 601.333,238.833 601.667,269.167 602,299.5C 622.167,279.333 642.333,259.167 662.5,239C 672.247,230.864 683.247,228.531 695.5,232C 722.105,238.818 748.771,245.318 775.5,251.5C 781.681,278.891 788.181,306.224 795,333.5C 796.915,345.612 793.915,356.278 786,365.5C 766.632,385.035 747.132,404.368 727.5,423.5 Z"/></g>
<g><path style="opacity:1" fill="#d49e0e" d="M 511.5,175.5 C 515.127,176.28 518.46,177.78 521.5,180C 536.899,190.395 552.565,200.395 568.5,210C 573.548,213.715 577.048,218.548 579,224.5C 579.5,252.498 579.667,280.498 579.5,308.5C 535.5,308.5 491.5,308.5 447.5,308.5C 447.024,279.103 447.524,249.77 449,220.5C 451.139,217.061 453.639,213.894 456.5,211C 475.238,199.641 493.572,187.808 511.5,175.5 Z"/></g>
<g><path style="opacity:1" fill="#846309" d="M 425.5,210.5 C 425.667,240.502 425.5,270.502 425,300.5C 424.283,299.956 423.783,299.289 423.5,298.5C 424.167,269.167 424.833,239.833 425.5,210.5 Z"/></g>
<g><path style="opacity:1" fill="#d39d0e" d="M 312.5,308.5 C 311.833,340.167 311.167,371.833 310.5,403.5C 294.868,388.368 279.368,373.035 264,357.5C 259.877,351.045 258.544,344.045 260,336.5C 264.667,315.833 269.333,295.167 274,274.5C 294.744,269.44 315.577,264.606 336.5,260C 344.082,258.544 351.082,259.877 357.5,264C 372.167,278.667 386.833,293.333 401.5,308C 371.835,308.5 342.169,308.667 312.5,308.5 Z"/></g>
<g><path style="opacity:1" fill="#d39e0e" d="M 709.5,309.5 C 681.5,308.833 653.5,308.167 625.5,307.5C 640.605,292.896 655.605,278.062 670.5,263C 676.452,259.752 682.785,258.752 689.5,260C 706.142,263.795 722.809,267.462 739.5,271C 744.054,272.017 748.387,273.517 752.5,275.5C 757.062,295.142 761.562,314.808 766,334.5C 767.397,342.231 766.397,349.564 763,356.5C 745.306,374.194 727.64,391.86 710,409.5C 709.5,376.168 709.333,342.835 709.5,309.5 Z"/></g>
<g><path style="opacity:1" fill="#2b2003" d="M 625.5,307.5 C 653.5,308.167 681.5,308.833 709.5,309.5C 681.159,309.833 652.825,309.5 624.5,308.5C 624.624,307.893 624.957,307.56 625.5,307.5 Z"/></g>
<g><path style="opacity:1" fill="#8e6a09" d="M 312.5,308.5 C 312.667,340.835 312.5,373.168 312,405.5C 311.283,404.956 310.783,404.289 310.5,403.5C 311.167,371.833 311.833,340.167 312.5,308.5 Z"/></g>
<g><path style="opacity:1" fill="#7c5c08" d="M 664.5,362.5 C 563.833,362.5 463.167,362.5 362.5,362.5C 362.5,463.167 362.5,563.833 362.5,664.5C 361.501,563.668 361.167,462.668 361.5,361.5C 462.668,361.167 563.668,361.501 664.5,362.5 Z"/></g>
<g><path style="opacity:1" fill="#d49e0e" d="M 664.5,362.5 C 664.5,463.167 664.5,563.833 664.5,664.5C 563.833,664.5 463.167,664.5 362.5,664.5C 362.5,563.833 362.5,463.167 362.5,362.5C 463.167,362.5 563.833,362.5 664.5,362.5 Z"/></g>
<g><path style="opacity:1" fill="#7f5e09" d="M 727.5,423.5 C 756.167,424.167 784.833,424.833 813.5,425.5C 784.492,425.833 755.492,425.5 726.5,424.5C 726.624,423.893 726.957,423.56 727.5,423.5 Z"/></g>
<g><path style="opacity:1" fill="#d49e0e" d="M 226.5,447.5 C 254.833,447.5 283.167,447.5 311.5,447.5C 311.5,491.167 311.5,534.833 311.5,578.5C 282.5,578.5 253.5,578.5 224.5,578.5C 218.495,577.016 213.662,573.682 210,568.5C 198.368,550.068 186.868,531.568 175.5,513C 187.452,494.267 199.285,475.434 211,456.5C 215.084,451.572 220.251,448.572 226.5,447.5 Z"/></g>
<g><path style="opacity:1" fill="#846309" d="M 226.5,447.5 C 254.995,446.502 283.662,446.169 312.5,446.5C 312.5,490.833 312.5,535.167 312.5,579.5C 282.995,579.831 253.662,579.498 224.5,578.5C 253.5,578.5 282.5,578.5 311.5,578.5C 311.5,534.833 311.5,491.167 311.5,447.5C 283.167,447.5 254.833,447.5 226.5,447.5 Z"/></g>
<g><path style="opacity:1" fill="#d49e0e" d="M 709.5,447.5 C 741.563,447.022 773.563,447.522 805.5,449C 809.916,451.412 813.749,454.578 817,458.5C 828,477.17 839.5,495.503 851.5,513.5C 838.834,532.161 826.668,551.161 815,570.5C 811.778,573.388 808.278,575.888 804.5,578C 772.896,579.478 741.229,579.978 709.5,579.5C 709.5,535.5 709.5,491.5 709.5,447.5 Z"/></g>
<g><path style="opacity:1" fill="#050402" d="M 627.5,568.5 C 618.348,569.494 609.015,569.827 599.5,569.5C 570.86,554.846 542.193,540.18 513.5,525.5C 484.629,540.435 455.629,555.102 426.5,569.5C 417.318,569.827 408.318,569.493 399.5,568.5C 432.473,552.013 465.473,535.513 498.5,519C 458.47,503.315 418.47,487.648 378.5,472C 394.04,459.541 411.707,452.041 431.5,449.5C 437.324,449.872 442.991,451.039 448.5,453C 470.172,461.17 491.838,469.336 513.5,477.5C 537.979,467.84 562.646,458.673 587.5,450C 610.373,450.269 630.707,457.603 648.5,472C 608.247,487.131 568.247,502.797 528.5,519C 561.212,536.023 594.212,552.523 627.5,568.5 Z"/></g>
<g><path style="opacity:1" fill="#fafafa" d="M 418.5,462.5 C 427.979,461.94 437.312,462.773 446.5,465C 468.723,473.695 490.89,482.528 513,491.5C 537.111,481.861 561.277,472.361 585.5,463C 592.5,462.333 599.5,462.333 606.5,463C 612.282,463.895 617.616,465.895 622.5,469C 591.5,481.333 560.5,493.667 529.5,506C 528.167,506.667 526.833,506.667 525.5,506C 519.712,500.484 513.045,499.151 505.5,502C 503,503.167 501.167,505 500,507.5C 468.571,494.871 437.071,482.371 405.5,470C 404.167,469.333 404.167,468.667 405.5,468C 409.741,465.651 414.075,463.818 418.5,462.5 Z"/></g>
<g><path style="opacity:1" fill="#c7950e" d="M 510.5,508.5 C 515.835,508.005 518.335,510.338 518,515.5C 515.294,518.978 512.294,519.311 509,516.5C 508.109,513.502 508.609,510.836 510.5,508.5 Z"/></g>
<g><path style="opacity:1" fill="#473505" d="M 399.5,568.5 C 408.318,569.493 417.318,569.827 426.5,569.5C 417.009,570.658 407.342,570.825 397.5,570C 398.044,569.283 398.711,568.783 399.5,568.5 Z"/></g>
<g><path style="opacity:1" fill="#4b3805" d="M 627.5,568.5 C 628.289,568.783 628.956,569.283 629.5,570C 619.325,570.825 609.325,570.658 599.5,569.5C 609.015,569.827 618.348,569.494 627.5,568.5 Z"/></g>
<g><path style="opacity:1" fill="#1e1702" d="M 208.5,600.5 C 239.174,600.167 269.841,600.5 300.5,601.5C 300.376,602.107 300.043,602.44 299.5,602.5C 269.167,601.833 238.833,601.167 208.5,600.5 Z"/></g>
<g><path style="opacity:1" fill="#d29d0e" d="M 709.5,616.5 C 727.465,633.965 745.299,651.632 763,669.5C 766.397,676.436 767.397,683.769 766,691.5C 761.434,711.496 756.934,731.496 752.5,751.5C 732.209,756.329 711.876,761.162 691.5,766C 683.8,767.334 676.467,766.334 669.5,763C 652.167,745.667 634.833,728.333 617.5,711C 648.165,710.5 678.832,710.333 709.5,710.5C 709.5,679.167 709.5,647.833 709.5,616.5 Z"/></g>
<g><path style="opacity:1" fill="#8e6a09" d="M 310.5,622.5 C 310.56,621.957 310.893,621.624 311.5,621.5C 312.5,651.159 312.833,680.826 312.5,710.5C 311.833,681.167 311.167,651.833 310.5,622.5 Z"/></g>
<g><path style="opacity:1" fill="#d49e0e" d="M 310.5,622.5 C 311.167,651.833 311.833,681.167 312.5,710.5C 344.167,711.167 375.833,711.833 407.5,712.5C 390.395,729.104 373.395,745.938 356.5,763C 349.564,766.397 342.231,767.397 334.5,766C 314.915,761.07 295.248,756.57 275.5,752.5C 274.194,751.088 273.36,749.421 273,747.5C 269.283,728.018 264.95,708.685 260,689.5C 258.752,682.785 259.752,676.452 263,670.5C 279.035,654.632 294.868,638.632 310.5,622.5 Z"/></g>
<g><path style="opacity:1" fill="#715407" d="M 312.5,710.5 C 344.507,710.167 376.507,710.5 408.5,711.5C 408.376,712.107 408.043,712.44 407.5,712.5C 375.833,711.833 344.167,711.167 312.5,710.5 Z"/></g>
<g><path style="opacity:1" fill="#d49e0e" d="M 447.5,711.5 C 491.167,711.5 534.833,711.5 578.5,711.5C 578.5,741.5 578.5,771.5 578.5,801.5C 577.326,806.851 574.659,811.351 570.5,815C 551.161,826.668 532.161,838.834 513.5,851.5C 495.002,839.417 476.336,827.583 457.5,816C 452.969,812.429 449.802,807.929 448,802.5C 447.5,772.168 447.333,741.835 447.5,711.5 Z"/></g>
<g><path style="opacity:1" fill="#8f6b09" d="M 447.5,711.5 C 491.33,710.501 535.33,710.168 579.5,710.5C 579.831,741.005 579.498,771.338 578.5,801.5C 578.5,771.5 578.5,741.5 578.5,711.5C 534.833,711.5 491.167,711.5 447.5,711.5 Z"/></g>
<g><path style="opacity:1" fill="#846309" d="M 423.5,727.5 C 423.56,726.957 423.893,726.624 424.5,726.5C 425.5,756.159 425.833,785.826 425.5,815.5C 424.833,786.167 424.167,756.833 423.5,727.5 Z"/></g>
</svg>
